<?xml version="1.0" encoding="UTF-8" standalone="no"?>
<!-- Created with Inkscape (http://www.inkscape.org/) -->

<svg
   xmlns:dc="http://purl.org/dc/elements/1.1/"
   xmlns:cc="http://creativecommons.org/ns#"
   xmlns:rdf="http://www.w3.org/1999/02/22-rdf-syntax-ns#"
   xmlns:svg="http://www.w3.org/2000/svg"
   xmlns="http://www.w3.org/2000/svg"
   xmlns:sodipodi="http://sodipodi.sourceforge.net/DTD/sodipodi-0.dtd"
   xmlns:inkscape="http://www.inkscape.org/namespaces/inkscape"
   width="538.67914mm"
   height="125.23615mm"
   viewBox="0 0 1908.7056 443.75009"
   id="svg2"
   version="1.1"
   inkscape:version="0.91 r13725"
   sodipodi:docname="CSHP-AB Logo.svg"
   inkscape:export-filename="E:\Desktop\CSHP-AB Logo + Text [Color].png"
   inkscape:export-xdpi="282.91"
   inkscape:export-ydpi="282.91">
  <defs
     id="defs4" />
  <sodipodi:namedview
     id="base"
     pagecolor="#ffffff"
     bordercolor="#666666"
     borderopacity="1.0"
     inkscape:pageopacity="0.0"
     inkscape:pageshadow="2"
     inkscape:zoom="0.49497475"
     inkscape:cx="1115.7762"
     inkscape:cy="273.27557"
     inkscape:document-units="px"
     inkscape:current-layer="layer1"
     showgrid="false"
     fit-margin-top="0"
     fit-margin-left="0"
     fit-margin-right="0"
     fit-margin-bottom="0"
     inkscape:window-width="1920"
     inkscape:window-height="1017"
     inkscape:window-x="1912"
     inkscape:window-y="-8"
     inkscape:window-maximized="1" />
  <metadata
     id="metadata7">
    <rdf:RDF>
      <cc:Work
         rdf:about="">
        <dc:format>image/svg+xml</dc:format>
        <dc:type
           rdf:resource="http://purl.org/dc/dcmitype/StillImage" />
        <dc:title></dc:title>
      </cc:Work>
    </rdf:RDF>
  </metadata>
  <g
     inkscape:groupmode="layer"
     id="layer2"
     inkscape:label="Layer 2"
     transform="translate(1412.6721,-643.01797)" />
  <g
     inkscape:label="Layer 1"
     inkscape:groupmode="layer"
     id="layer1"
     transform="translate(1279.7772,-870.38004)">
    <g
       id="g4218"
       transform="translate(0,643.01795)">
      <path
         inkscape:connector-curvature="0"
         id="path4173"
         d="m 253.51192,670.27889 c -0.45837,-0.4583 -0.83337,-22.9702 -0.83337,-50.0264 l 0,-49.1931 24.68749,0.3389 24.6875,0.3389 0.625,24.375 0.625,24.375 48.4375,0.3272 48.4375,0.3272 0,24.9853 0,24.9853 -72.9166,0 c -40.1043,0 -73.29176,-0.375 -73.75002,-0.8333 z"
         style="fill:#f9bf13;fill-opacity:1" />
      <path
         inkscape:connector-curvature="0"
         id="path4171"
         d="m 450.17854,646.13169 0,-24.9805 35.3125,-0.332 35.3125,-0.332 0.3521,-14.6875 0.3523,-14.6875 24.9602,0 24.9604,0 0,40 0,40 -60.625,0 -60.625,0 z"
         style="fill:#0055a5;fill-opacity:1" />
      <path
         inkscape:connector-curvature="0"
         id="path4169"
         d="m 326.42854,571.26849 0,-19.8438 -3.983,-0.7966 c -2.1906,-0.4381 -45.6437,-0.7754 -96.56249,-0.7496 l -92.5795,0.047 -0.32,-99.27 c -0.25375,-78.7529 0,-99.3933 1.25,-99.8664 0.8635,-0.328 23.22625,-0.53 49.695,-0.4491 l 48.125,0.1473 0,25 0,25 -24.6875,0.3389 -24.6875,0.3389 0,49.3486 0,49.3486 96.87499,0 96.875,0 0,45.625 0,45.625 -25,0 -25,0 z"
         style="fill:#05b06e;fill-opacity:1" />
      <path
         inkscape:connector-curvature="0"
         id="path4167"
         d="m 400.17854,545.47989 0,-45.6323 102.1875,0.3198 102.1875,0.3198 0,25 0,25 -77.1875,0.3221 -77.1875,0.322 0,19.9905 0,19.9904 -25,0 -25,0 z"
         style="fill:#0055a5;fill-opacity:1" />
      <path
         inkscape:connector-curvature="0"
         id="path4165"
         d="m 508.48604,486.40749 c -0.675,-1.0922 82.7979,-85.4554 85.4176,-86.3287 1.6592,-0.553 35.0249,31.9815 35.0249,34.1522 0,0.7032 -11.6719,12.9215 -25.9375,27.1517 l -25.9375,25.8731 -33.9686,0.086 c -18.6826,0.047 -34.2521,-0.3732 -34.5989,-0.9341 z"
         style="fill:#0055a5;fill-opacity:1" />
      <path
         inkscape:connector-curvature="0"
         id="path4163"
         d="m 211.42855,448.03379 0,-25.6097 20.3125,-0.3434 20.3125,-0.3435 0,-97.18754 0,-97.18758 99.06249,8e-5 99.0625,6e-5 0,50 0,49.99998 -25,0 -25,0 0,-24.99998 0,-25 -48.7424,0 -48.7423,0 -0.3202,97.81248 -0.3201,97.8125 -45.31249,0.3281 -45.3125,0.3281 z"
         style="fill:#e94a37;fill-opacity:1" />
      <path
         inkscape:connector-curvature="0"
         id="path4147"
         d="m 521.42854,416.11219 0,-18.75 -96.875,0 -96.875,0 0,-45.625 0,-45.62498 25,0 25,0 0,20.62498 0,20.625 96.875,0 96.875,0 0,19.6995 0,19.6996 -24.0742,24.0504 c -13.2408,13.2278 -24.4908,24.0505 -25,24.0505 -0.5092,0 -0.9258,-8.4375 -0.9258,-18.75 z"
         style="fill:#00acd9;fill-opacity:1" />
    </g>
  </g>
</svg>
