<?xml version="1.0" encoding="UTF-8" standalone="no"?>
<!-- Created with Inkscape (http://www.inkscape.org/) -->

<svg
   width="617.07953mm"
   height="131.08728mm"
   viewBox="0 0 2186.5023 464.48243"
   id="svg2"
   version="1.1"
   inkscape:version="1.3.2 (091e20e, 2023-11-25, custom)"
   sodipodi:docname="logo_large.svg"
   inkscape:export-filename="E:\Desktop\CSHP-AB Logo + Text [Color].png"
   inkscape:export-xdpi="282.91"
   inkscape:export-ydpi="282.91"
   xml:space="preserve"
   xmlns:inkscape="http://www.inkscape.org/namespaces/inkscape"
   xmlns:sodipodi="http://sodipodi.sourceforge.net/DTD/sodipodi-0.dtd"
   xmlns="http://www.w3.org/2000/svg"
   xmlns:svg="http://www.w3.org/2000/svg"
   xmlns:rdf="http://www.w3.org/1999/02/22-rdf-syntax-ns#"
   xmlns:cc="http://creativecommons.org/ns#"
   xmlns:dc="http://purl.org/dc/elements/1.1/"><defs
     id="defs4" /><sodipodi:namedview
     id="base"
     pagecolor="#ffffff"
     bordercolor="#666666"
     borderopacity="1.0"
     inkscape:pageopacity="0.0"
     inkscape:pageshadow="2"
     inkscape:zoom="0.7"
     inkscape:cx="715.71429"
     inkscape:cy="136.42857"
     inkscape:document-units="px"
     inkscape:current-layer="layer1"
     showgrid="false"
     fit-margin-top="0"
     fit-margin-left="0"
     fit-margin-right="0"
     fit-margin-bottom="0"
     inkscape:window-width="1920"
     inkscape:window-height="1057"
     inkscape:window-x="-8"
     inkscape:window-y="-8"
     inkscape:window-maximized="1"
     inkscape:snap-text-baseline="false"
     inkscape:showpageshadow="0"
     inkscape:pagecheckerboard="0"
     inkscape:deskcolor="#505050" /><metadata
     id="metadata7"><rdf:RDF><cc:Work
         rdf:about=""><dc:format>image/svg+xml</dc:format><dc:type
           rdf:resource="http://purl.org/dc/dcmitype/StillImage" /></cc:Work></rdf:RDF></metadata><g
     inkscape:label="Horizontal Logo"
     inkscape:groupmode="layer"
     id="layer1"
     transform="translate(1278.5473,-862.80402)"><g
       id="g3"
       inkscape:label="Alberta Branch"
       transform="translate(0,-22.883842)"><path
         d="m 485.1859,1287.5675 v -8.125 h 16.33125 q 4.30625,0 6.6625,-2.6812 2.35625,-2.6813 2.35625,-6.175 0,-2.3563 -1.05625,-4.3875 -1.05625,-2.0313 -3.0875,-3.25 -2.03125,-1.2188 -4.875,-1.2188 H 485.1859 v -8.125 h 14.95 q 3.65625,0 5.85,-1.8687 2.19375,-1.8688 2.19375,-5.525 0,-3.6563 -2.19375,-5.525 -2.19375,-1.8688 -5.85,-1.8688 h -14.95 v -8.125 h 15.19375 q 5.76875,0 9.5875,2.1125 3.81875,2.1125 5.6875,5.4438 1.86875,3.3312 1.86875,7.15 0,4.4687 -2.51875,7.8812 -2.4375,3.4125 -7.23125,5.525 l 0.73125,-2.925 q 5.3625,2.1938 8.36875,6.175 3.00625,3.9813 3.00625,9.3438 0,4.3875 -2.19375,8.0437 -2.1125,3.6563 -6.3375,5.9313 -4.14375,2.1937 -10.2375,2.1937 z m -6.41875,0 v -56.875 h 9.34375 v 56.875 z m 79.45623,-24.1312 v -7.7188 h 14.38125 q 4.30625,0 6.6625,-2.1937 2.4375,-2.275 2.4375,-6.2563 0,-3.575 -2.35625,-6.0125 -2.35625,-2.4375 -6.6625,-2.4375 h -14.4625 v -8.125 h 14.86875 q 5.3625,0 9.425,2.1938 4.0625,2.1125 6.25625,5.85 2.275,3.6562 2.275,8.3687 0,4.9563 -2.275,8.6125 -2.19375,3.6563 -6.25625,5.6875 -4.0625,2.0313 -9.425,2.0313 z m -6.41875,24.1312 v -56.875 h 9.34375 v 56.875 z m 31.2,0 -19.90625,-24.7 8.69375,-3.1687 22.99375,27.8687 z m 35.17508,0 23.4,-56.875 h 6.5 l 23.2375,56.875 h -10.075 l -18.2,-46.0687 h 3.4125 l -18.3625,46.0687 z m 11.5375,-10.9687 v -8.125 h 30.14375 v 8.125 z m 71.57503,10.9687 v -56.875 h 6.5 l 2.84375,10.725 v 46.15 z m 39.40625,0 -34.04375,-44.4437 1.1375,-12.4313 34.04375,44.4438 z m 0,0 -2.84375,-9.9937 v -46.8813 h 9.34375 v 56.875 z m 67.18757,0.8125 q -6.175,0 -11.45625,-2.1937 -5.2,-2.275 -9.1,-6.2563 -3.9,-4.0625 -6.0125,-9.3437 -2.1125,-5.3625 -2.1125,-11.4563 0,-6.0937 2.1125,-11.375 2.1125,-5.3625 6.0125,-9.3437 3.9,-3.9813 9.1,-6.2563 5.28125,-2.275 11.45625,-2.275 6.90625,0 11.94375,2.275 5.0375,2.275 8.9375,6.175 l -6.3375,6.3375 q -2.51875,-2.7625 -6.175,-4.3062 -3.575,-1.5438 -8.36875,-1.5438 -4.225,0 -7.71875,1.4625 -3.49375,1.4625 -6.09375,4.225 -2.51875,2.6813 -3.9,6.4188 -1.38125,3.7375 -1.38125,8.2062 0,4.4688 1.38125,8.2063 1.38125,3.7375 3.9,6.5 2.6,2.6812 6.09375,4.1437 3.49375,1.4625 7.71875,1.4625 5.2,0 8.775,-1.5437 3.65625,-1.625 6.175,-4.3875 l 6.3375,6.3375 q -3.9,3.9812 -9.18125,6.2562 -5.28125,2.275 -12.10625,2.275 z m 52.1563,-0.8125 v -56.875 h 9.34375 v 56.875 z m 36.15625,0 v -56.875 h 9.34375 v 56.875 z m -29.7375,-25.1875 v -8.5312 h 31.76875 v 8.5312 z"
         id="text3"
         style="font-weight:500;font-size:81.25px;line-height:0.95;font-family:Outfit;-inkscape-font-specification:'Outfit Medium';text-align:end;letter-spacing:22.5px;text-anchor:end;fill:#00add8;stroke-width:8.4375;stroke-linecap:square;stroke-linejoin:bevel;stroke-miterlimit:1.1"
         inkscape:label="Branch Text"
         aria-label="BRANCH" /><path
         d="m 476.35472,1179.3531 95.4,-231.87495 h 26.5 l 94.7375,231.87495 h -41.075 l -74.2,-187.8187 h 13.9125 l -74.8625,187.8187 z m 47.0375,-44.7187 v -33.125 h 122.89375 v 33.125 z m 243.11882,44.7187 v -33.125 h 66.58125 q 17.55625,0 27.1625,-10.9312 9.60625,-10.9313 9.60625,-25.175 0,-9.6063 -4.30625,-17.8875 -4.30625,-8.2813 -12.5875,-13.25 -8.28125,-4.9688 -19.875,-4.9688 h -66.58125 v -33.125 h 60.95 q 14.90625,0 23.85,-7.6187 8.94375,-7.6188 8.94375,-22.525 0,-14.90625 -8.94375,-22.525 -8.94375,-7.61875 -23.85,-7.61875 h -60.95 v -33.125 h 61.94375 q 23.51875,0 39.0875,8.6125 15.56875,8.6125 23.1875,22.19375 7.61875,13.58125 7.61875,29.15 0,18.2187 -10.26875,32.1312 -9.9375,13.9125 -29.48125,22.525 l 2.98125,-11.925 q 21.8625,8.9438 34.11875,25.175 12.25625,16.2313 12.25625,38.0938 0,17.8875 -8.94375,32.7937 -8.6125,14.9063 -25.8375,24.1813 -16.89375,8.9437 -41.7375,8.9437 z m -26.16875,0 V 947.47815 h 38.09375 v 231.87495 z"
         id="text2"
         style="font-weight:500;font-size:331.25px;line-height:0.95;font-family:Outfit;-inkscape-font-specification:'Outfit Medium';text-align:end;letter-spacing:16.875px;text-anchor:end;fill:#00add8;stroke-width:8.4375;stroke-linecap:round"
         inkscape:label="Alberta Text"
         transform="translate(2.3279402e-5)"
         aria-label="AB" /></g><path
       style="fill:none;fill-opacity:1;stroke:#00add8;stroke-width:8.41931;stroke-linecap:square;stroke-linejoin:miter;stroke-dasharray:none;stroke-opacity:1"
       d="M 384.95483,867.01367 V 1323.0768"
       id="path1"
       inkscape:label="Vertical Line"
       transform="translate(2.3279402e-5)" /><g
       id="g4218"
       transform="translate(-327.6682,645.80811)"
       inkscape:label="Logo"><path
         inkscape:connector-curvature="0"
         id="path4169"
         d="m 326.42854,571.26849 v -19.8438 l -3.983,-0.7966 c -2.1906,-0.4381 -45.6437,-0.7754 -96.56249,-0.7496 l -92.5795,0.047 -0.32,-99.27 c -0.25375,-78.7529 0,-99.3933 1.25,-99.8664 0.8635,-0.328 23.22625,-0.53 49.695,-0.4491 l 48.125,0.1473 v 25 25 l -24.6875,0.3389 -24.6875,0.3389 v 49.3486 49.3486 h 96.87499 96.875 v 45.625 45.625 h -25 -25 z"
         style="fill:#00bd71;fill-opacity:1"
         inkscape:label="Green" /><path
         inkscape:connector-curvature="0"
         id="path4173"
         d="m 253.51192,670.27889 c -0.45837,-0.4583 -0.83337,-22.9702 -0.83337,-50.0264 v -49.1931 l 24.68749,0.3389 24.6875,0.3389 0.625,24.375 0.625,24.375 48.4375,0.3272 48.4375,0.3272 v 24.9853 24.9853 h -72.9166 c -40.1043,0 -73.29176,-0.375 -73.75002,-0.8333 z"
         style="fill:#f8bf00;fill-opacity:1"
         transform="translate(2.3279402e-5)"
         inkscape:label="Yellow" /><path
         inkscape:connector-curvature="0"
         id="path4171"
         d="m 450.17854,646.13169 v -24.9805 l 35.3125,-0.332 35.3125,-0.332 0.3521,-14.6875 0.3523,-14.6875 h 24.9602 24.9604 v 40 40 h -60.625 -60.625 z"
         style="fill:#0055a5;fill-opacity:1"
         transform="translate(2.3279402e-5)"
         inkscape:label="Blue 3" /><path
         inkscape:connector-curvature="0"
         id="path4167"
         d="m 400.17854,545.47989 v -45.6323 l 102.1875,0.3198 102.1875,0.3198 v 25 25 l -77.1875,0.3221 -77.1875,0.322 v 19.9905 19.9904 h -25 -25 z"
         style="fill:#0055a5;fill-opacity:1"
         inkscape:label="Blue 2" /><path
         inkscape:connector-curvature="0"
         id="path4165"
         d="m 508.48604,486.40749 c -0.675,-1.0922 82.7979,-85.4554 85.4176,-86.3287 1.6592,-0.553 35.0249,31.9815 35.0249,34.1522 0,0.7032 -11.6719,12.9215 -25.9375,27.1517 l -25.9375,25.8731 -33.9686,0.086 c -18.6826,0.047 -34.2521,-0.3732 -34.5989,-0.9341 z"
         style="fill:#0055a5;fill-opacity:1"
         inkscape:label="Blue 1" /><path
         inkscape:connector-curvature="0"
         id="path4147"
         d="m 521.42854,416.11219 v -18.75 h -96.875 -96.875 v -45.625 -45.62498 h 25 25 v 20.62498 20.625 h 96.875 96.875 v 19.6995 19.6996 l -24.0742,24.0504 c -13.2408,13.2278 -24.4908,24.0505 -25,24.0505 -0.5092,0 -0.9258,-8.4375 -0.9258,-18.75 z"
         style="fill:#00add8;fill-opacity:1"
         inkscape:label="Teal" /><path
         inkscape:connector-curvature="0"
         id="path4163"
         d="m 211.42855,448.03379 v -25.6097 l 20.3125,-0.3434 20.3125,-0.3435 v -97.18754 -97.18758 l 99.06249,8e-5 99.0625,6e-5 v 50 49.99998 h -25 -25 v -24.99998 -25 h -48.7424 -48.7423 l -0.3202,97.81248 -0.3201,97.8125 -45.31249,0.3281 -45.3125,0.3281 z"
         style="fill:#e74c39;fill-opacity:1"
         transform="translate(2.3279402e-5)"
         inkscape:label="Red" /></g><g
       id="text4165"
       style="font-size:112.5px;line-height:0.95;font-family:'Franklin Gothic Book';-inkscape-font-specification:'Franklin Gothic Book, Normal';letter-spacing:-0.9375px;word-spacing:0px;white-space:pre;inline-size:1166.51;fill:#0055a5;stroke-width:1px"
       inkscape:label="CSHP Text"
       transform="translate(92.940943,11.727635)"
       aria-label="Canadian Society of Healthcare-Systems Pharmacy"><path
         style="font-weight:500;font-family:Outfit;-inkscape-font-specification:'Outfit Medium';text-align:end;text-anchor:end"
         d="m -1317.3382,1006.5886 q -8.55,0 -15.8625,-3.0375 -7.2,-3.15 -12.6,-8.66248 -5.4,-5.625 -8.325,-12.9375 -2.925,-7.425 -2.925,-15.8625 0,-8.4375 2.925,-15.75 2.925,-7.425 8.325,-12.9375 5.4,-5.5125 12.6,-8.6625 7.3125,-3.15 15.8625,-3.15 9.5625,0 16.5375,3.15 6.975,3.15 12.375,8.55 l -8.775,8.775 q -3.4875,-3.825 -8.55,-5.9625 -4.95,-2.1375 -11.5875,-2.1375 -5.85,0 -10.6875,2.025 -4.8375,2.025 -8.4375,5.85 -3.4875,3.7125 -5.4,8.8875 -1.9125,5.175 -1.9125,11.3625 0,6.1875 1.9125,11.3625 1.9125,5.175 5.4,9 3.6,3.7125 8.4375,5.7375 4.8375,2.025 10.6875,2.025 7.2,0 12.15,-2.1375 5.0625,-2.25 8.55,-6.075 l 8.775,8.775 q -5.4,5.51248 -12.7125,8.66248 -7.3125,3.15 -16.7625,3.15 z m 59.4751,0 q -7.3125,0 -13.275,-3.7125 -5.85,-3.71248 -9.3375,-10.01248 -3.375,-6.4125 -3.375,-14.2875 0,-7.9875 3.375,-14.2875 3.4875,-6.4125 9.3375,-10.125 5.9625,-3.825 13.275,-3.825 6.1875,0 10.9125,2.7 4.8375,2.5875 7.65,7.2 2.8125,4.6125 2.8125,10.4625 v 15.525 q 0,5.85 -2.8125,10.4625 -2.7,4.61248 -7.5375,7.31248 -4.8375,2.5875 -11.025,2.5875 z m 2.025,-11.69998 q 6.8625,0 11.025,-4.6125 4.275,-4.6125 4.275,-11.8125 0,-4.8375 -1.9125,-8.55 -1.9125,-3.7125 -5.4,-5.7375 -3.375,-2.1375 -7.9875,-2.1375 -4.5,0 -7.9875,2.1375 -3.375,2.025 -5.4,5.7375 -1.9125,3.7125 -1.9125,8.55 0,4.8375 1.9125,8.55 2.025,3.7125 5.4,5.85 3.4875,2.025 7.9875,2.025 z m 14.5125,10.57498 v -14.51248 l 2.1375,-13.1625 -2.1375,-13.05 v -13.275 h 12.375 v 53.99998 z m 62.175,0 v -31.16248 q 0,-5.4 -3.4875,-8.8875 -3.375,-3.4875 -8.775,-3.4875 -3.6,0 -6.4125,1.575 -2.8125,1.575 -4.3875,4.3875 -1.575,2.8125 -1.575,6.4125 l -4.8375,-2.7 q 0,-6.1875 2.7,-10.9125 2.7,-4.8375 7.425,-7.5375 4.8375,-2.8125 10.8,-2.8125 6.075,0 10.8,3.15 4.725,3.0375 7.425,7.9875 2.7,4.8375 2.7,10.125 v 33.86248 z m -37.0125,0 v -53.99998 h 12.375 v 53.99998 z m 83.6625,1.125 q -7.3125,0 -13.275,-3.7125 -5.85,-3.71248 -9.3375,-10.01248 -3.375,-6.4125 -3.375,-14.2875 0,-7.9875 3.375,-14.2875 3.4875,-6.4125 9.3375,-10.125 5.9625,-3.825 13.275,-3.825 6.1875,0 10.9125,2.7 4.8375,2.5875 7.65,7.2 2.8125,4.6125 2.8125,10.4625 v 15.525 q 0,5.85 -2.8125,10.4625 -2.7,4.61248 -7.5375,7.31248 -4.8375,2.5875 -11.025,2.5875 z m 2.025,-11.69998 q 6.8625,0 11.025,-4.6125 4.275,-4.6125 4.275,-11.8125 0,-4.8375 -1.9125,-8.55 -1.9125,-3.7125 -5.4,-5.7375 -3.375,-2.1375 -7.9875,-2.1375 -4.5,0 -7.9875,2.1375 -3.375,2.025 -5.4,5.7375 -1.9125,3.7125 -1.9125,8.55 0,4.8375 1.9125,8.55 2.025,3.7125 5.4,5.85 3.4875,2.025 7.9875,2.025 z m 14.5125,10.57498 v -14.51248 l 2.1375,-13.1625 -2.1375,-13.05 v -13.275 h 12.375 v 53.99998 z m 47.775,1.125 q -7.3125,0 -13.275,-3.7125 -5.85,-3.71248 -9.3375,-10.01248 -3.375,-6.4125 -3.375,-14.2875 0,-7.9875 3.375,-14.2875 3.4875,-6.4125 9.3375,-10.125 5.9625,-3.825 13.275,-3.825 6.1875,0 10.9125,2.7 4.8375,2.5875 7.65,7.2 2.8125,4.6125 2.8125,10.4625 v 15.525 q 0,5.85 -2.8125,10.4625 -2.7,4.61248 -7.5375,7.31248 -4.8375,2.5875 -11.025,2.5875 z m 2.025,-11.69998 q 4.6125,0 7.9875,-2.025 3.4875,-2.1375 5.4,-5.85 1.9125,-3.7125 1.9125,-8.55 0,-4.8375 -1.9125,-8.55 -1.9125,-3.7125 -5.4,-5.7375 -3.375,-2.1375 -7.9875,-2.1375 -4.5,0 -7.9875,2.1375 -3.375,2.025 -5.4,5.7375 -1.9125,3.7125 -1.9125,8.55 0,4.8375 1.9125,8.55 2.025,3.7125 5.4,5.85 3.4875,2.025 7.9875,2.025 z m 26.8875,10.57498 h -12.375 v -14.51248 l 2.1375,-13.1625 -2.1375,-13.05 v -40.275 h 12.375 z m 12.9,0 v -53.99998 h 12.375 v 53.99998 z m 6.1875,-63.89998 q -3.15,0 -5.2875,-2.1375 -2.025,-2.1375 -2.025,-5.2875 0,-3.15 2.025,-5.2875 2.1375,-2.1375 5.2875,-2.1375 3.2625,0 5.2875,2.1375 2.025,2.1375 2.025,5.2875 0,3.15 -2.025,5.2875 -2.025,2.1375 -5.2875,2.1375 z m 41.69994,65.02498 q -7.3125,0 -13.275,-3.7125 -5.85,-3.71248 -9.33754,-10.01248 -3.375,-6.4125 -3.375,-14.2875 0,-7.9875 3.375,-14.2875 3.48754,-6.4125 9.33754,-10.125 5.9625,-3.825 13.275,-3.825 6.1875,0 10.9125,2.7 4.8375,2.5875 7.65,7.2 2.8125,4.6125 2.8125,10.4625 v 15.525 q 0,5.85 -2.8125,10.4625 -2.7,4.61248 -7.5375,7.31248 -4.8375,2.5875 -11.025,2.5875 z m 2.025,-11.69998 q 6.8625,0 11.025,-4.6125 4.275,-4.6125 4.275,-11.8125 0,-4.8375 -1.9125,-8.55 -1.9125,-3.7125 -5.4,-5.7375 -3.375,-2.1375 -7.9875,-2.1375 -4.5,0 -7.9875,2.1375 -3.375,2.025 -5.4,5.7375 -1.9125,3.7125 -1.9125,8.55 0,4.8375 1.9125,8.55 2.025,3.7125 5.4,5.85 3.4875,2.025 7.9875,2.025 z m 14.5125,10.57498 v -14.51248 l 2.1375,-13.1625 -2.1375,-13.05 v -13.275 h 12.375 v 53.99998 z m 62.17497,0 v -31.16248 q 0,-5.4 -3.4875,-8.8875 -3.375,-3.4875 -8.775,-3.4875 -3.6,0 -6.4125,1.575 -2.8125,1.575 -4.3875,4.3875 -1.575,2.8125 -1.575,6.4125 l -4.8375,-2.7 q 0,-6.1875 2.7,-10.9125 2.7,-4.8375 7.425,-7.5375 4.8375,-2.8125 10.8,-2.8125 6.075,0 10.8,3.15 4.725,3.0375 7.425,7.9875 2.7,4.8375 2.7,10.125 v 33.86248 z m -37.0125,0 v -53.99998 h 12.375 v 53.99998 z m 106.23767,1.125 q -9.3375,0 -15.8625,-3.375 -6.525,-3.37498 -11.7,-9.89998 l 8.775,-8.775 q 3.2625,4.725 7.7625,7.425 4.5,2.5875 11.475,2.5875 6.525,0 10.35,-2.7 3.9375,-2.7 3.9375,-7.425 0,-3.9375 -2.025,-6.4125 -2.025,-2.475 -5.4,-4.05 -3.2625,-1.6875 -7.3125,-2.925 -3.9375,-1.35 -7.9875,-2.925 -3.9375,-1.6875 -7.3125,-4.1625 -3.2625,-2.475 -5.2875,-6.4125 -2.025,-3.9375 -2.025,-10.0125 0,-6.975 3.375,-11.8125 3.4875,-4.95 9.3375,-7.5375 5.85,-2.5875 13.05,-2.5875 7.7625,0 13.8375,3.0375 6.1875,3.0375 10.0125,7.7625 l -8.775,8.775 q -3.375,-3.825 -7.0875,-5.625 -3.6,-1.9125 -8.325,-1.9125 -5.85,0 -9.225,2.3625 -3.2625,2.3625 -3.2625,6.6375 0,3.6 2.025,5.85 2.025,2.1375 5.2875,3.7125 3.375,1.4625 7.3125,2.8125 4.05,1.35 7.9875,3.0375 4.05,1.6875 7.3125,4.3875 3.375,2.5875 5.4,6.75 2.025,4.1625 2.025,10.4625 0,10.575 -7.5375,16.76248 -7.425,6.1875 -20.1375,6.1875 z m 62.06262,0 q -7.875,0 -14.2875,-3.7125 -6.4125,-3.82498 -10.2375,-10.23748 -3.7125,-6.4125 -3.7125,-14.2875 0,-7.875 3.7125,-14.175 3.825,-6.3 10.2375,-10.0125 6.4125,-3.825 14.2875,-3.825 7.9875,0 14.4,3.7125 6.4125,3.7125 10.125,10.125 3.825,6.3 3.825,14.175 0,7.875 -3.825,14.2875 -3.7125,6.4125 -10.125,10.23748 -6.4125,3.7125 -14.4,3.7125 z m 0,-11.92498 q 4.6125,0 8.1,-2.025 3.6,-2.1375 5.5125,-5.85 2.025,-3.7125 2.025,-8.4375 0,-4.725 -2.025,-8.325 -2.025,-3.6 -5.5125,-5.625 -3.4875,-2.1375 -8.1,-2.1375 -4.5,0 -8.1,2.1375 -3.4875,2.025 -5.5125,5.625 -1.9125,3.6 -1.9125,8.325 0,4.725 1.9125,8.4375 2.025,3.7125 5.5125,5.85 3.6,2.025 8.1,2.025 z m 62.51247,11.92498 q -7.9875,0 -14.5125,-3.7125 -6.4125,-3.71248 -10.125,-10.12498 -3.7125,-6.4125 -3.7125,-14.2875 0,-7.9875 3.7125,-14.2875 3.7125,-6.4125 10.125,-10.125 6.525,-3.7125 14.5125,-3.7125 6.3,0 11.7,2.475 5.5125,2.3625 9.3375,6.8625 l -8.1,8.2125 q -2.3625,-2.8125 -5.7375,-4.1625 -3.2625,-1.4625 -7.2,-1.4625 -4.6125,0 -8.2125,2.1375 -3.4875,2.025 -5.5125,5.625 -1.9125,3.6 -1.9125,8.4375 0,4.725 1.9125,8.4375 2.025,3.6 5.5125,5.7375 3.6,2.025 8.2125,2.025 3.9375,0 7.2,-1.35 3.375,-1.4625 5.7375,-4.275 l 8.1,8.2125 q -3.825,4.49998 -9.3375,6.97498 -5.4,2.3625 -11.7,2.3625 z m 29.09997,-1.125 v -53.99998 h 12.375 v 53.99998 z m 6.1875,-63.89998 q -3.15,0 -5.2875,-2.1375 -2.025,-2.1375 -2.025,-5.2875 0,-3.15 2.025,-5.2875 2.1375,-2.1375 5.2875,-2.1375 3.2625,0 5.2875,2.1375 2.025,2.1375 2.025,5.2875 0,3.15 -2.025,5.2875 -2.025,2.1375 -5.2875,2.1375 z m 44.17489,65.02498 q -8.1,0 -14.625,-3.6 -6.4125,-3.71248 -10.2375,-10.12498 -3.7125,-6.4125 -3.7125,-14.4 0,-7.9875 3.7125,-14.2875 3.7125,-6.4125 10.0125,-10.125 6.4125,-3.7125 14.175,-3.7125 7.5375,0 13.275,3.4875 5.85,3.4875 9.1125,9.5625 3.375,6.075 3.375,13.8375 0,1.35 -0.225,2.8125 -0.1125,1.35 -0.45,3.0375 h -44.325 v -10.125 h 37.9125 l -4.6125,4.05 q -0.225,-4.95 -1.9125,-8.325 -1.6875,-3.375 -4.8375,-5.175 -3.0375,-1.8 -7.5375,-1.8 -4.725,0 -8.2125,2.025 -3.4875,2.025 -5.4,5.7375 -1.9125,3.6 -1.9125,8.6625 0,5.0625 2.025,8.8875 2.025,3.825 5.7375,5.9625 3.7125,2.025 8.55,2.025 4.1625,0 7.65,-1.4625 3.6,-1.4625 6.075,-4.275 l 7.875,7.9875 q -3.9375,4.61248 -9.5625,6.97498 -5.625,2.3625 -11.925,2.3625 z m 40.91266,-1.125 v -76.49998 h 12.375 v 76.49998 z m -12.9375,-42.74998 v -11.25 h 38.25 v 11.25 z m 63.75003,43.31248 -23.0625,-54.56248 h 13.6125 l 15.75,40.05 h -3.9375 l 16.65,-40.05 h 13.725 l -25.0875,54.56248 z m -16.0875,21.9375 16.7625,-34.53748 6.975,12.59998 -10.0125,21.9375 z m 102.30002,-21.375 q -7.875,0 -14.2875,-3.7125 -6.4125,-3.82498 -10.2375,-10.23748 -3.7125,-6.4125 -3.7125,-14.2875 0,-7.875 3.7125,-14.175 3.825,-6.3 10.2375,-10.0125 6.4125,-3.825 14.2875,-3.825 7.9875,0 14.4,3.7125 6.4125,3.7125 10.125,10.125 3.825,6.3 3.825,14.175 0,7.875 -3.825,14.2875 -3.7125,6.4125 -10.125,10.23748 -6.4125,3.7125 -14.4,3.7125 z m 0,-11.92498 q 4.6125,0 8.1,-2.025 3.6,-2.1375 5.5125,-5.85 2.025,-3.7125 2.025,-8.4375 0,-4.725 -2.025,-8.325 -2.025,-3.6 -5.5125,-5.625 -3.4875,-2.1375 -8.1,-2.1375 -4.5,0 -8.1,2.1375 -3.4875,2.025 -5.5125,5.625 -1.9125,3.6 -1.9125,8.325 0,4.725 1.9125,8.4375 2.025,3.7125 5.5125,5.85 3.6,2.025 8.1,2.025 z m 43.50001,10.79998 v -61.08748 q 0,-6.1875 2.7,-10.9125 2.8125,-4.725 7.65,-7.425 4.95,-2.7 11.3625,-2.7 4.95,0 8.4375,1.6875 3.4875,1.6875 6.525,4.8375 l -7.9875,7.9875 q -1.35,-1.35 -2.925,-2.1375 -1.575,-0.7875 -4.05,-0.7875 -4.5,0 -6.975,2.475 -2.3625,2.3625 -2.3625,6.8625 v 61.19998 z m -12.9375,-42.74998 v -11.25 h 41.625 v 11.25 z"
         id="path2" /><path
         style="font-weight:500;font-family:Outfit;-inkscape-font-specification:'Outfit Medium';text-align:end;text-anchor:end"
         d="m -1371.4883,1113.1301 v -78.75 h 12.9375 v 78.75 z m 50.0625,0 v -78.75 h 12.9375 v 78.75 z m -41.175,-34.875 v -11.8125 h 43.9875 v 11.8125 z m 93.675,36 q -8.1,0 -14.625,-3.6 -6.4125,-3.7125 -10.2375,-10.125 -3.7125,-6.4125 -3.7125,-14.4 0,-7.9875 3.7125,-14.2875 3.7125,-6.4125 10.0125,-10.125 6.4125,-3.7125 14.175,-3.7125 7.5375,0 13.275,3.4875 5.85,3.4875 9.1125,9.5625 3.375,6.075 3.375,13.8375 0,1.35 -0.225,2.8125 -0.1125,1.35 -0.45,3.0375 h -44.325 v -10.125 h 37.9125 l -4.6125,4.05 q -0.225,-4.95 -1.9125,-8.325 -1.6875,-3.375 -4.8375,-5.175 -3.0375,-1.8 -7.5375,-1.8 -4.725,0 -8.2125,2.025 -3.4875,2.025 -5.4,5.7375 -1.9125,3.6 -1.9125,8.6625 0,5.0625 2.025,8.8875 2.025,3.825 5.7375,5.9625 3.7125,2.025 8.55,2.025 4.1625,0 7.65,-1.4625 3.6,-1.4625 6.075,-4.275 l 7.875,7.9875 q -3.9375,4.6125 -9.5625,6.975 -5.625,2.3625 -11.925,2.3625 z m 56.6626,0 q -7.3125,0 -13.275,-3.7125 -5.85,-3.7125 -9.3375,-10.0125 -3.375,-6.4125 -3.375,-14.2875 0,-7.9875 3.375,-14.2875 3.4875,-6.4125 9.3375,-10.125 5.9625,-3.825 13.275,-3.825 6.1875,0 10.9125,2.7 4.8375,2.5875 7.65,7.2 2.8125,4.6125 2.8125,10.4625 v 15.525 q 0,5.85 -2.8125,10.4625 -2.7,4.6125 -7.5375,7.3125 -4.8375,2.5875 -11.025,2.5875 z m 2.025,-11.7 q 6.8625,0 11.025,-4.6125 4.275,-4.6125 4.275,-11.8125 0,-4.8375 -1.9125,-8.55 -1.9125,-3.7125 -5.4,-5.7375 -3.375,-2.1375 -7.9875,-2.1375 -4.5,0 -7.9875,2.1375 -3.375,2.025 -5.4,5.7375 -1.9125,3.7125 -1.9125,8.55 0,4.8375 1.9125,8.55 2.025,3.7125 5.4,5.85 3.4875,2.025 7.9875,2.025 z m 14.5125,10.575 v -14.5125 l 2.1375,-13.1625 -2.1375,-13.05 v -13.275 h 12.375 v 54 z m 25.1624,0 v -81 h 12.375 v 81 z m 33.3751,0 v -76.5 h 12.375 v 76.5 z m -12.9375,-42.75 v -11.25 h 38.25 v 11.25 z m 83.325,42.75 v -31.1625 q 0,-5.4 -3.4875,-8.8875 -3.375,-3.4875 -8.775,-3.4875 -3.6,0 -6.4125,1.575 -2.8125,1.575 -4.3875,4.3875 -1.575,2.8125 -1.575,6.4125 l -4.8375,-2.7 q 0,-6.1875 2.7,-10.9125 2.7,-4.8375 7.425,-7.5375 4.8375,-2.8125 10.8,-2.8125 6.075,0 10.8,2.7 4.725,2.7 7.425,7.5375 2.7,4.725 2.7,11.025 v 33.8625 z m -37.0125,0 v -81 h 12.375 v 81 z m 85.9126,1.125 q -7.9875,0 -14.5125,-3.7125 -6.4125,-3.7125 -10.125,-10.125 -3.7125,-6.4125 -3.7125,-14.2875 0,-7.9875 3.7125,-14.2875 3.7125,-6.4125 10.125,-10.125 6.525,-3.7125 14.5125,-3.7125 6.3,0 11.7,2.475 5.5125,2.3625 9.33748,6.8625 l -8.09998,8.2125 q -2.3625,-2.8125 -5.7375,-4.1625 -3.2625,-1.4625 -7.2,-1.4625 -4.6125,0 -8.2125,2.1375 -3.4875,2.025 -5.5125,5.625 -1.9125,3.6 -1.9125,8.4375 0,4.725 1.9125,8.4375 2.025,3.6 5.5125,5.7375 3.6,2.025 8.2125,2.025 3.9375,0 7.2,-1.35 3.375,-1.4625 5.7375,-4.275 l 8.09998,8.2125 q -3.82498,4.5 -9.33748,6.975 -5.4,2.3625 -11.7,2.3625 z m 50.47489,0 q -7.3125,0 -13.275,-3.7125 -5.85,-3.7125 -9.3375,-10.0125 -3.375,-6.4125 -3.375,-14.2875 0,-7.9875 3.375,-14.2875 3.4875,-6.4125 9.3375,-10.125 5.9625,-3.825 13.275,-3.825 6.1875,0 10.9125,2.7 4.8375,2.5875 7.65,7.2 2.8125,4.6125 2.8125,10.4625 v 15.525 q 0,5.85 -2.8125,10.4625 -2.7,4.6125 -7.5375,7.3125 -4.8375,2.5875 -11.025,2.5875 z m 2.025,-11.7 q 6.8625,0 11.025,-4.6125 4.275,-4.6125 4.275,-11.8125 0,-4.8375 -1.9125,-8.55 -1.9125,-3.7125 -5.4,-5.7375 -3.375,-2.1375 -7.9875,-2.1375 -4.5,0 -7.9875,2.1375 -3.375,2.025 -5.4,5.7375 -1.9125,3.7125 -1.9125,8.55 0,4.8375 1.9125,8.55 2.025,3.7125 5.4,5.85 3.4875,2.025 7.9875,2.025 z m 14.5125,10.575 v -14.5125 l 2.1375,-13.1625 -2.1375,-13.05 v -13.275 h 12.375 v 54 z m 25.1625,0 v -54 h 12.375 v 54 z m 12.375,-30.0375 -4.275,-2.1375 q 0,-10.2375 4.5,-16.5375 4.6125,-6.4125 13.8375,-6.4125 4.05,0 7.3125,1.4625 3.2625,1.4625 6.075,4.725 l -8.1,8.325 q -1.4625,-1.575 -3.2625,-2.25 -1.8,-0.675 -4.1625,-0.675 -5.175,0 -8.55,3.2625 -3.375,3.2625 -3.375,10.2375 z m 55.98747,31.1625 q -8.1,0 -14.625,-3.6 -6.4125,-3.7125 -10.2375,-10.125 -3.7125,-6.4125 -3.7125,-14.4 0,-7.9875 3.7125,-14.2875 3.7125,-6.4125 10.0125,-10.125 6.4125,-3.7125 14.175,-3.7125 7.5375,0 13.275,3.4875 5.85,3.4875 9.1125,9.5625 3.375,6.075 3.375,13.8375 0,1.35 -0.225,2.8125 -0.1125,1.35 -0.45,3.0375 h -44.325 v -10.125 h 37.9125 l -4.6125,4.05 q -0.225,-4.95 -1.9125,-8.325 -1.6875,-3.375 -4.8375,-5.175 -3.0375,-1.8 -7.5375,-1.8 -4.725,0 -8.2125,2.025 -3.4875,2.025 -5.4,5.7375 -1.9125,3.6 -1.9125,8.6625 0,5.0625 2.025,8.8875 2.025,3.825 5.7375,5.9625 3.7125,2.025 8.55,2.025 4.1625,0 7.65,-1.4625 3.6,-1.4625 6.075,-4.275 l 7.875,7.9875 q -3.9375,4.6125 -9.5625,6.975 -5.625,2.3625 -11.925,2.3625 z m 36.07497,-23.9625 v -11.7 h 38.1375 v 11.7 z m 71.62519,23.9625 q -9.3375,0 -15.8625,-3.375 -6.525,-3.375 -11.7,-9.9 l 8.775,-8.775 q 3.2625,4.725 7.7625,7.425 4.5,2.5875 11.475,2.5875 6.525,0 10.35,-2.7 3.9375,-2.7 3.9375,-7.425 0,-3.9375 -2.025,-6.4125 -2.025,-2.475 -5.4,-4.05 -3.2625,-1.6875 -7.3125,-2.925 -3.9375,-1.35 -7.9875,-2.925 -3.9375,-1.6875 -7.3125,-4.1625 -3.2625,-2.475 -5.2875,-6.4125 -2.025,-3.9375 -2.025,-10.0125 0,-6.975 3.375,-11.8125 3.4875,-4.95 9.3375,-7.5375 5.85,-2.5875 13.05,-2.5875 7.7625,0 13.8375,3.0375 6.1875,3.0375 10.0125,7.7625 l -8.775,8.775 q -3.375,-3.825 -7.0875,-5.625 -3.6,-1.9125 -8.325,-1.9125 -5.85,0 -9.225,2.3625 -3.2625,2.3625 -3.2625,6.6375 0,3.6 2.025,5.85 2.025,2.1375 5.2875,3.7125 3.375,1.4625 7.3125,2.8125 4.05,1.35 7.9875,3.0375 4.05,1.6875 7.3125,4.3875 3.375,2.5875 5.4,6.75 2.025,4.1625 2.025,10.4625 0,10.575 -7.5375,16.7625 -7.425,6.1875 -20.1375,6.1875 z m 53.73755,-0.5625 -23.0625,-54.5625 h 13.6125 l 15.75,40.05 h -3.9375 l 16.65,-40.05 h 13.725 l -25.0875,54.5625 z m -16.0875,21.9375 16.7625,-34.5375 6.975,12.6 -10.0125,21.9375 z m 71.625,-21.375 q -4.5,0 -8.6625,-1.125 -4.1625,-1.2375 -7.65,-3.375 -3.4875,-2.25 -6.075,-5.4 l 7.875,-7.875 q 2.8125,3.2625 6.4125,4.95 3.7125,1.575 8.325,1.575 4.1625,0 6.3,-1.2375 2.1375,-1.2375 2.1375,-3.6 0,-2.475 -2.025,-3.825 -2.025,-1.35 -5.2875,-2.25 -3.15,-1.0125 -6.75,-2.025 -3.4875,-1.0125 -6.75,-2.7 -3.15,-1.8 -5.175,-4.8375 -2.025,-3.0375 -2.025,-7.875 0,-5.175 2.3625,-8.8875 2.475,-3.7125 6.8625,-5.7375 4.5,-2.025 10.6875,-2.025 6.525,0 11.475,2.3625 5.0625,2.25 8.4375,6.8625 l -7.875,7.875 q -2.3625,-2.925 -5.4,-4.3875 -3.0375,-1.4625 -6.975,-1.4625 -3.7125,0 -5.7375,1.125 -2.025,1.125 -2.025,3.2625 0,2.25 2.025,3.4875 2.025,1.2375 5.175,2.1375 3.2625,0.9 6.75,2.025 3.6,1.0125 6.75,2.925 3.2625,1.8 5.2875,4.95 2.025,3.0375 2.025,7.9875 0,7.875 -5.5125,12.4875 -5.5125,4.6125 -14.9625,4.6125 z m 37.9875,-1.125 v -76.5 h 12.375 v 76.5 z m -12.9375,-42.75 v -11.25 h 38.25 v 11.25 z m 69.82507,43.875 q -8.1,0 -14.625,-3.6 -6.4125,-3.7125 -10.2375,-10.125 -3.7125,-6.4125 -3.7125,-14.4 0,-7.9875 3.7125,-14.2875 3.7125,-6.4125 10.0125,-10.125 6.4125,-3.7125 14.175,-3.7125 7.5375,0 13.275,3.4875 5.85,3.4875 9.1125,9.5625 3.375,6.075 3.375,13.8375 0,1.35 -0.225,2.8125 -0.1125,1.35 -0.45,3.0375 h -44.325 v -10.125 h 37.9125 l -4.6125,4.05 q -0.225,-4.95 -1.9125,-8.325 -1.6875,-3.375 -4.8375,-5.175 -3.0375,-1.8 -7.5375,-1.8 -4.725,0 -8.2125,2.025 -3.4875,2.025 -5.4,5.7375 -1.9125,3.6 -1.9125,8.6625 0,5.0625 2.025,8.8875 2.025,3.825 5.7375,5.9625 3.7125,2.025 8.55,2.025 4.1625,0 7.65,-1.4625 3.6,-1.4625 6.075,-4.275 l 7.875,7.9875 q -3.9375,4.6125 -9.5625,6.975 -5.625,2.3625 -11.925,2.3625 z m 34.05001,-1.125 v -54 h 12.375 v 54 z m 35.8875,0 v -32.175 q 0,-5.4 -3.375,-8.325 -3.375,-3.0375 -8.325,-3.0375 -3.375,0 -6.075,1.35 -2.5875,1.35 -4.1625,3.9375 -1.575,2.475 -1.575,6.075 l -4.8375,-2.7 q 0,-6.1875 2.7,-10.6875 2.7,-4.5 7.3125,-6.975 4.6125,-2.5875 10.35,-2.5875 5.7375,0 10.35,2.475 4.6125,2.475 7.3125,6.975 2.7,4.5 2.7,10.8 v 34.875 z m 35.8875,0 v -32.175 q 0,-5.4 -3.375,-8.325 -3.375,-3.0375 -8.325,-3.0375 -3.2625,0 -5.9625,1.35 -2.7,1.35 -4.275,3.9375 -1.575,2.475 -1.575,6.075 l -6.975,-2.7 q 0.5625,-6.1875 3.6,-10.6875 3.0375,-4.5 7.7625,-6.975 4.8375,-2.5875 10.575,-2.5875 5.85,0 10.575,2.475 4.725,2.475 7.5375,6.975 2.8125,4.5 2.8125,10.8 v 34.875 z m 41.81249,1.125 q -4.5,0 -8.6625,-1.125 -4.1625,-1.2375 -7.65,-3.375 -3.4875,-2.25 -6.075,-5.4 l 7.875,-7.875 q 2.8125,3.2625 6.4125,4.95 3.7125,1.575 8.325,1.575 4.1625,0 6.3,-1.2375 2.1375,-1.2375 2.1375,-3.6 0,-2.475 -2.025,-3.825 -2.025,-1.35 -5.2875,-2.25 -3.15,-1.0125 -6.75,-2.025 -3.4875,-1.0125 -6.75,-2.7 -3.15,-1.8 -5.175,-4.8375 -2.025,-3.0375 -2.025,-7.875 0,-5.175 2.3625,-8.8875 2.475,-3.7125 6.8625,-5.7375 4.5,-2.025 10.6875,-2.025 6.525,0 11.475,2.3625 5.0625,2.25 8.4375,6.8625 l -7.875,7.875 q -2.3625,-2.925 -5.4,-4.3875 -3.0375,-1.4625 -6.975,-1.4625 -3.7125,0 -5.7375,1.125 -2.025,1.125 -2.025,3.2625 0,2.25 2.025,3.4875 2.025,1.2375 5.175,2.1375 3.2625,0.9 6.75,2.025 3.6,1.0125 6.75,2.925 3.2625,1.8 5.2875,4.95 2.025,3.0375 2.025,7.9875 0,7.875 -5.5125,12.4875 -5.5125,4.6125 -14.9625,4.6125 z"
         id="path3" /><path
         style="font-weight:500;font-family:Outfit;-inkscape-font-specification:'Outfit Medium';text-align:end;text-anchor:end"
         d="m -866.17532,1191.0966 v -11.25 h 19.6875 q 4.05,0 7.0875,-1.575 3.15,-1.6875 4.95,-4.6125 1.8,-3.0375 1.8,-7.0875 0,-4.05 -1.8,-6.975 -1.8,-3.0375 -4.95,-4.6125 -3.0375,-1.6875 -7.0875,-1.6875 h -19.6875 v -11.25 h 20.3625 q 7.425,0 13.275,3.0375 5.9625,3.0375 9.3375,8.55 3.4875,5.5125 3.4875,12.9375 0,7.425 -3.4875,12.9375 -3.375,5.5125 -9.3375,8.55 -5.85,3.0375 -13.275,3.0375 z m -8.8875,29.7 v -78.75 h 12.9375 v 78.75 z m 102.33752,0 v -31.1625 q 0,-5.4 -3.4875,-8.8875 -3.375,-3.4875 -8.775,-3.4875 -3.6,0 -6.4125,1.575 -2.8125,1.575 -4.3875,4.3875 -1.575,2.8125 -1.575,6.4125 l -4.8375,-2.7 q 0,-6.1875 2.7,-10.9125 2.7,-4.8375 7.425,-7.5375 4.8375,-2.8125 10.8,-2.8125 6.075,0 10.8,2.7 4.725,2.7 7.425,7.5375 2.7,4.725 2.7,11.025 v 33.8625 z m -37.0125,0 v -81 h 12.375 v 81 z m 83.66256,1.125 q -7.3125,0 -13.275,-3.7125 -5.85,-3.7125 -9.3375,-10.0125 -3.375,-6.4125 -3.375,-14.2875 0,-7.9875 3.375,-14.2875 3.4875,-6.4125 9.3375,-10.125 5.9625,-3.825 13.275,-3.825 6.1875,0 10.9125,2.7 4.8375,2.5875 7.65,7.2 2.8125,4.6125 2.8125,10.4625 v 15.525 q 0,5.85 -2.8125,10.4625 -2.7,4.6125 -7.5375,7.3125 -4.8375,2.5875 -11.025,2.5875 z m 2.025,-11.7 q 6.8625,0 11.025,-4.6125 4.275,-4.6125 4.275,-11.8125 0,-4.8375 -1.9125,-8.55 -1.9125,-3.7125 -5.4,-5.7375 -3.375,-2.1375 -7.9875,-2.1375 -4.5,0 -7.9875,2.1375 -3.375,2.025 -5.4,5.7375 -1.9125,3.7125 -1.9125,8.55 0,4.8375 1.9125,8.55 2.025,3.7125 5.4,5.85 3.4875,2.025 7.9875,2.025 z m 14.5125,10.575 v -14.5125 l 2.1375,-13.1625 -2.1375,-13.05 v -13.275 h 12.375 v 54 z m 25.1625,0 v -54 h 12.375 v 54 z m 12.375,-30.0375 -4.275,-2.1375 q 0,-10.2375 4.5,-16.5375 4.6125,-6.4125 13.8375,-6.4125 4.05,0 7.3125,1.4625 3.2625,1.4625 6.075,4.725 l -8.1,8.325 q -1.4625,-1.575 -3.2625,-2.25 -1.8,-0.675 -4.1625,-0.675 -5.175,0 -8.55,3.2625 -3.375,3.2625 -3.375,10.2375 z m 32.47494,30.0375 v -54 h 12.375 v 54 z m 35.8875,0 v -32.175 q 0,-5.4 -3.375,-8.325 -3.375,-3.0375 -8.325,-3.0375 -3.375,0 -6.075,1.35 -2.5875,1.35 -4.1625,3.9375 -1.575,2.475 -1.575,6.075 l -4.8375,-2.7 q 0,-6.1875 2.7,-10.6875 2.7,-4.5 7.3125,-6.975 4.6125,-2.5875 10.35,-2.5875 5.7375,0 10.35,2.475 4.6125,2.475 7.3125,6.975 2.7,4.5 2.7,10.8 v 34.875 z m 35.8875,0 v -32.175 q 0,-5.4 -3.375,-8.325 -3.375,-3.0375 -8.325,-3.0375 -3.2625,0 -5.9625,1.35 -2.7,1.35 -4.275,3.9375 -1.575,2.475 -1.575,6.075 l -6.975,-2.7 q 0.5625,-6.1875 3.6,-10.6875 3.0375,-4.5 7.7625,-6.975 4.8375,-2.5875 10.575,-2.5875 5.85,0 10.575,2.475 4.725,2.475 7.5375,6.975 2.8125,4.5 2.8125,10.8 v 34.875 z m 46.76251,1.125 q -7.3125,0 -13.275,-3.7125 -5.85,-3.7125 -9.3375,-10.0125 -3.375,-6.4125 -3.375,-14.2875 0,-7.9875 3.375,-14.2875 3.4875,-6.4125 9.3375,-10.125 5.9625,-3.825 13.275,-3.825 6.1875,0 10.9125,2.7 4.8375,2.5875 7.65,7.2 2.8125,4.6125 2.8125,10.4625 v 15.525 q 0,5.85 -2.8125,10.4625 -2.7,4.6125 -7.5375,7.3125 -4.8375,2.5875 -11.025,2.5875 z m 2.025,-11.7 q 6.8625,0 11.025,-4.6125 4.275,-4.6125 4.275,-11.8125 0,-4.8375 -1.9125,-8.55 -1.9125,-3.7125 -5.4,-5.7375 -3.375,-2.1375 -7.9875,-2.1375 -4.5,0 -7.9875,2.1375 -3.375,2.025 -5.4,5.7375 -1.9125,3.7125 -1.9125,8.55 0,4.8375 1.9125,8.55 2.025,3.7125 5.4,5.85 3.4875,2.025 7.9875,2.025 z m 14.5125,10.575 v -14.5125 l 2.1375,-13.1625 -2.1375,-13.05 v -13.275 h 12.375 v 54 z m 50.025,1.125 q -7.9875,0 -14.5125,-3.7125 -6.4125,-3.7125 -10.125,-10.125 -3.7125,-6.4125 -3.7125,-14.2875 0,-7.9875 3.7125,-14.2875 3.7125,-6.4125 10.125,-10.125 6.525,-3.7125 14.5125,-3.7125 6.3,0 11.7,2.475 5.5125,2.3625 9.3375,6.8625 l -8.1,8.2125 q -2.3625,-2.8125 -5.7375,-4.1625 -3.2625,-1.4625 -7.2,-1.4625 -4.6125,0 -8.2125,2.1375 -3.4875,2.025 -5.5125,5.625 -1.9125,3.6 -1.9125,8.4375 0,4.725 1.9125,8.4375 2.025,3.6 5.5125,5.7375 3.6,2.025 8.2125,2.025 3.9375,0 7.2,-1.35 3.375,-1.4625 5.7375,-4.275 l 8.1,8.2125 q -3.825,4.5 -9.3375,6.975 -5.4,2.3625 -11.7,2.3625 z m 46.42494,-0.5625 -23.0625,-54.5625 h 13.6125 l 15.75,40.05 h -3.9375 l 16.65,-40.05 h 13.725 l -25.0875,54.5625 z m -16.0875,21.9375 16.7625,-34.5375 6.975,12.6 -10.0125,21.9375 z"
         id="path4" /></g></g></svg>
